<svg xmlns="http://www.w3.org/2000/svg" width="37.33" height="37.33" viewBox="0 0 37.33 37.33"><defs><style>.a{fill:#0052a5;}.b{isolation:isolate;}</style></defs><g transform="translate(-804.23 -540.717)"><path class="a" d="M804.23,544.813v8.325a.974.974,0,0,0,1.947,0v-8.325a2.151,2.151,0,0,1,2.148-2.148h29.139a2.151,2.151,0,0,1,2.148,2.148v29.139a2.151,2.151,0,0,1-2.148,2.148H808.326a2.151,2.151,0,0,1-2.148-2.148V557.3a.974.974,0,0,0-1.947,0v16.651a4.1,4.1,0,0,0,4.1,4.1h29.139a4.1,4.1,0,0,0,4.1-4.1V544.813a4.1,4.1,0,0,0-4.1-4.1H808.326A4.1,4.1,0,0,0,804.23,544.813Z" transform="translate(0)"/><g class="b" transform="translate(818.277 549.655)"><g class="b" transform="translate(0 0)"><path class="a" d="M915.558,622.434v-.644a5.337,5.337,0,0,1,.429-2.294,6.141,6.141,0,0,1,1.6-1.9,10.779,10.779,0,0,0,2.044-2.062,3.137,3.137,0,0,0,.423-1.668,2.325,2.325,0,0,0-.781-1.877,3.384,3.384,0,0,0-2.246-.661,7.633,7.633,0,0,0-1.835.221,9.952,9.952,0,0,0-2.05.8l-.7-1.609a10.014,10.014,0,0,1,4.707-1.18,5.155,5.155,0,0,1,3.539,1.12,4,4,0,0,1,1.263,3.158,4.612,4.612,0,0,1-.232,1.531,4.5,4.5,0,0,1-.685,1.251,16.462,16.462,0,0,1-1.954,1.9,7.343,7.343,0,0,0-1.591,1.7,3.647,3.647,0,0,0-.387,1.811v.393Zm-.584,3.539q0-1.621,1.43-1.621a1.361,1.361,0,0,1,1.067.417,1.742,1.742,0,0,1,.375,1.2,1.709,1.709,0,0,1-.381,1.186,1.356,1.356,0,0,1-1.061.423,1.449,1.449,0,0,1-1.025-.375A1.617,1.617,0,0,1,914.974,625.973Z" transform="translate(-912.436 -609.563)"/></g></g></g></svg>