<svg xmlns="http://www.w3.org/2000/svg" width="105.702" height="104.566" viewBox="0 0 105.702 104.566"><defs><style>.a{fill:#0052a5;}</style></defs><g transform="translate(-1.2 -2.1)"><g transform="translate(85.307 3.805)"><path class="a" d="M30.8,2.7" transform="translate(-30.8 -2.7)"/></g><g transform="translate(85.307 27.389)"><path class="a" d="M30.8,11" transform="translate(-30.8 -11)"/></g><g transform="translate(24.5 2.384)"><path class="a" d="M10.821,105.629A1.421,1.421,0,0,1,9.4,104.209V3.621a1.421,1.421,0,0,1,2.841,0V104.209A1.421,1.421,0,0,1,10.821,105.629Z" transform="translate(-9.4 -2.2)"/></g><g transform="translate(1.2 14.034)"><path class="a" d="M15.407,86.429H2.621a1.421,1.421,0,1,1,0-2.841H15.407a1.421,1.421,0,0,1,0,2.841Zm0-15.344H2.621a1.421,1.421,0,0,1,0-2.841H15.407a1.421,1.421,0,0,1,0,2.841Zm0-15.628H2.621a1.421,1.421,0,1,1,0-2.841H15.407a1.421,1.421,0,1,1,0,2.841Zm0-15.344H2.621a1.421,1.421,0,1,1,0-2.841H15.407a1.421,1.421,0,0,1,0,2.841Zm0-15.344H2.621a1.421,1.421,0,0,1,0-2.841H15.407a1.421,1.421,0,0,1,0,2.841Zm0-15.628H2.621a1.421,1.421,0,1,1,0-2.841H15.407a1.421,1.421,0,0,1,0,2.841Z" transform="translate(-1.2 -6.3)"/></g><g transform="translate(40.128 27.673)"><path class="a" d="M16.321,77.022A1.419,1.419,0,0,1,14.994,75.1l5.4-14.207a1.418,1.418,0,0,1,.318-.5L69.3,11.521a1.411,1.411,0,0,1,1-.421h0a1.422,1.422,0,0,1,1.006.418l9.945,9.945a1.423,1.423,0,0,1,0,2.012L32.383,72.064a1.46,1.46,0,0,1-.591.352L16.73,76.959A1.35,1.35,0,0,1,16.321,77.022Zm6.618-14.841L18.673,73.4,30.63,69.8,78.242,22.463l-7.931-7.931Zm8.442,8.874h0Z" transform="translate(-14.9 -11.1)"/></g><g transform="translate(46.948 75.978)"><path class="a" d="M27.245,39.75a1.415,1.415,0,0,1-1.023-.432L17.7,30.507a1.421,1.421,0,1,1,2.043-1.975l8.524,8.811a1.419,1.419,0,0,1-1.02,2.407Z" transform="translate(-17.3 -28.1)"/></g><g transform="translate(90.137 33.072)"><path class="a" d="M42.446,24.366a1.427,1.427,0,0,1-1.006-.415l-8.524-8.524a1.422,1.422,0,0,1,2.012-2.009l8.524,8.524a1.419,1.419,0,0,1-1.006,2.424Z" transform="translate(-32.5 -13)"/></g><g transform="translate(8.588 2.1)"><path class="a" d="M75.121,106.666h-62.8A8.435,8.435,0,0,1,3.8,98.142V10.624A8.435,8.435,0,0,1,12.324,2.1h62.8a8.433,8.433,0,0,1,8.524,8.524V27.1a1.421,1.421,0,1,1-2.841,0V10.624a5.624,5.624,0,0,0-5.683-5.683h-62.8a5.622,5.622,0,0,0-5.683,5.683V98.142a5.622,5.622,0,0,0,5.683,5.683h62.8A5.624,5.624,0,0,0,80.8,98.142V68.59a1.421,1.421,0,0,1,2.841,0V98.142A8.433,8.433,0,0,1,75.121,106.666Z" transform="translate(-3.8 -2.1)"/></g></g></svg>