<svg xmlns="http://www.w3.org/2000/svg" width="18" height="16" viewBox="0 0 18 16"><defs><style>.a{fill:#0052a5;}</style></defs><path class="a" d="M13.846,0a.692.692,0,0,1,.692.692v.641h2.1a.659.659,0,0,1,.33.088.682.682,0,0,1,.337-.088A.692.692,0,0,1,18,2.026V15.308a.692.692,0,0,1-1.03.6.652.652,0,0,1-.329.088H.667A.666.666,0,0,1,0,15.333V2.026a.692.692,0,0,1,1.03-.605.652.652,0,0,1,.329-.088h2.1V.693a.693.693,0,1,1,1.385,0v.641h8.307V.693A.693.693,0,0,1,13.846,0Zm2.769,6.666H1.384v8H16.615v-8Zm0-4H14.538v.642a.692.692,0,0,1-1.384,0V2.666H4.846v.642a.692.692,0,0,1-1.384,0V2.666H1.384V5.333H16.615Z"/></svg>