<svg xmlns="http://www.w3.org/2000/svg" width="53.23" height="59.26" viewBox="0 0 53.23 59.26"><defs><style>.call-hotline{fill:none;stroke:#fff;stroke-linecap:round;stroke-linejoin:round;stroke-miterlimit:10;stroke-width:1.48px;}</style></defs><g transform="translate(-53.923 -178.26)"><path class="call-hotline" d="M11.6,36.158H43.253L24.412,3.5,12.1,24.6" transform="translate(63.161 175.5)"/><path class="call-hotline" d="M16.7,7.6V18.4m0,5.276v.754" transform="translate(70.873 181.7)"/><path class="call-hotline" d="M44.3,53.719c-22.609,0-40.7-18.841-40.7-41.953A3.325,3.325,0,0,1,6.866,8.5H14.9a3.325,3.325,0,0,1,3.266,3.266,22.918,22.918,0,0,0,1.256,8.29,3.623,3.623,0,0,1-.754,3.266L13.9,28.095A34.827,34.827,0,0,0,28.219,42.665l4.773-4.773a2.813,2.813,0,0,1,3.266-.754A22.409,22.409,0,0,0,44.3,38.395a3.325,3.325,0,0,1,3.266,3.266v8.29a8.781,8.781,0,0,1-.754,3.015A3.3,3.3,0,0,1,44.3,53.719Z" transform="translate(51.063 183.061)"/></g></svg>