<svg xmlns="http://www.w3.org/2000/svg" width="50" height="50" viewBox="0 0 50 50"><defs><style>.a-i-am-sick-icon-5{fill:#0052a5;}.b-i-am-sick-icon-5{fill:none;fill-rule:evenodd;}</style></defs><g transform="translate(1.852 0.926)"><path class="a-i-am-sick-icon-5" d="M23.472,0a3.848,3.848,0,0,1,3.844,3.844V9.091a.778.778,0,0,1-1.556,0V6.507H1.556V41.131H25.762V34.9a.777.777,0,0,1,1.555,0V43.9a3.849,3.849,0,0,1-3.844,3.845H3.843A3.85,3.85,0,0,1,0,43.9V3.844A3.849,3.849,0,0,1,3.844,0Zm2.29,42.687H1.556V43.9a2.292,2.292,0,0,0,2.289,2.29H23.472a2.292,2.292,0,0,0,2.289-2.29V42.687ZM16.355,43.71a.778.778,0,1,1,0,1.556H10.963a.778.778,0,1,1,0-1.556ZM42.5,11.5a3.137,3.137,0,0,1,3.133,3.133v13.1A3.137,3.137,0,0,1,42.5,30.86H27.668l-3.824,4.022a.779.779,0,0,1-1.342-.537V30.86H20.17a3.137,3.137,0,0,1-3.133-3.133v-13.1A3.137,3.137,0,0,1,20.17,11.5Zm0,1.556H20.17a1.58,1.58,0,0,0-1.578,1.578v13.1A1.58,1.58,0,0,0,20.17,29.3H23.28a.778.778,0,0,1,.778.778V32.4l2.714-2.853a.775.775,0,0,1,.563-.242H42.5a1.58,1.58,0,0,0,1.578-1.578v-13.1A1.58,1.58,0,0,0,42.5,13.051ZM35.93,22.426a.778.778,0,1,1,0,1.556H22.794a.778.778,0,1,1,0-1.556ZM39.78,17.6a.778.778,0,1,1,0,1.556H22.793a.778.778,0,0,1,0-1.556ZM23.472,1.556H3.843A2.29,2.29,0,0,0,1.556,3.844V4.951H25.762V3.844a2.292,2.292,0,0,0-2.289-2.29ZM14.5,2.565a.778.778,0,0,1,0,1.556H12.815a.778.778,0,1,1,0-1.556Z"/></g><path class="b-i-am-sick-icon-5" d="M0,0H50V50H0Z"/></svg>