<svg xmlns="http://www.w3.org/2000/svg" width="47.5" height="47.105" viewBox="0 0 47.5 47.105"><defs><style>.a-i-am-sick-icon-3{fill:#0052a5;}</style></defs><g transform="translate(-738.62 -400.29)"><g transform="translate(738.62 400.29)"><path class="a-i-am-sick-icon-3" d="M787.579,417.543l-4.364-4.373a.733.733,0,0,0-1.032,0l-21.836,21.836a.741.741,0,0,0-.173.265l-2.328,6.409a.734.734,0,0,0,.164.749.725.725,0,0,0,.529.228.883.883,0,0,0,.21-.027l6.691-2.045a.639.639,0,0,0,.31-.183l21.827-21.827A.733.733,0,0,0,787.579,417.543ZM759.718,440.8l1.671-4.592,3.131,3.131Zm5.952-2.383-3.332-3.341,18.249-18.249,3.332,3.332Zm19.28-19.289-3.332-3.332,1.077-1.077,3.332,3.332Z" transform="translate(-740.291 -401.393)"/><path class="a-i-am-sick-icon-3" d="M777.19,412.358a.732.732,0,0,0,.73-.73v-7.394a3.951,3.951,0,0,0-3.944-3.944H745.9a3.951,3.951,0,0,0-3.944,3.944v1.525h-2.6a.73.73,0,1,0,0,1.461h2.6v5.45h-2.6a.73.73,0,1,0,0,1.461h2.6v5.45h-2.6a.73.73,0,1,0,0,1.461h2.6v5.45h-2.6a.73.73,0,1,0,0,1.461h2.6v5.45h-2.6a.73.73,0,1,0,0,1.461h2.6v5.45h-2.6a.73.73,0,1,0,0,1.461h2.6v1.689a3.927,3.927,0,0,0,3.935,3.935h28.09a3.951,3.951,0,0,0,3.944-3.944V430.269a.73.73,0,1,0-1.461,0v13.182a2.486,2.486,0,0,1-2.483,2.483H750.57V401.751h23.406a2.486,2.486,0,0,1,2.483,2.483v7.394A.732.732,0,0,0,777.19,412.358Zm-28.081,33.576h-3.223a2.462,2.462,0,0,1-2.474-2.483v-1.68h1.643a.73.73,0,0,0,0-1.461h-1.643v-5.45h1.643a.73.73,0,0,0,0-1.461h-1.643v-5.45h1.643a.73.73,0,0,0,0-1.461h-1.643v-5.45h1.643a.73.73,0,0,0,0-1.461h-1.643v-5.45h1.643a.73.73,0,0,0,0-1.461h-1.643v-5.45h1.643a.73.73,0,0,0,0-1.461h-1.643v-1.525a2.486,2.486,0,0,1,2.483-2.483h3.213Z" transform="translate(-738.62 -400.29)"/></g></g></svg>