<svg xmlns="http://www.w3.org/2000/svg" width="50" height="50" viewBox="0 0 50 50"><defs><style>.a-i-am-sick-icon-2{fill:#0052a5;}.b-i-am-sick-icon-2{fill:none;fill-rule:evenodd;}</style></defs><path class="a-i-am-sick-icon-2" d="M48.245,41.647a.794.794,0,0,1-.8.784H32.858c.4-3.968-.8-6.918-3.6-8.793a6.456,6.456,0,0,0,1.623-6.049,10.077,10.077,0,0,1,4.909-2.757.759.759,0,0,0,.346-.2.745.745,0,0,0,.38-.638V21.442a.755.755,0,0,0-.317-.612.785.785,0,0,0-.691-.114c-.037.011-3.571,1.049-5.581-.44a11.308,11.308,0,0,0,2.108-4.208c.164-1.179.865-5.147,3.015-6.718a4.67,4.67,0,0,1,6.072,0c2.15,1.57,2.851,5.539,3.015,6.718a11.3,11.3,0,0,0,2.107,4.208c-2.008,1.488-5.543.451-5.58.44a.794.794,0,0,0-.691.114.757.757,0,0,0-.317.612V24a.756.756,0,0,0,.509.707.788.788,0,0,0,.25.112,10.24,10.24,0,0,1,7.834,9.924v6.907Zm-24,.784H17.187c-.576-5.156,1.991-7.047,3.255-7.778a6.94,6.94,0,0,0,7.613,0c1.265.731,3.828,2.623,3.254,7.778ZM1.555,41.647V34.741A10.239,10.239,0,0,1,9.39,24.817a.763.763,0,0,0,.6-.74v-2.64a.753.753,0,0,0-.528-.71c-.009-.006-.016-.017-.026-.023a6.135,6.135,0,0,1-2.394-2.728.775.775,0,0,0-.813-.425A2.621,2.621,0,0,1,3.78,15.078c0-1.192.6-2.475,1.922-2.475a.773.773,0,0,0,.757-.588c.645-2.731,2.633-4.5,5.066-4.5,2.283,0,4.289,1.813,5,4.512a.774.774,0,0,0,.753.572c1.321,0,1.922,1.283,1.922,2.475a2.638,2.638,0,0,1-2.506,2.468.777.777,0,0,0-.685.441,6.135,6.135,0,0,1-2.222,2.645.753.753,0,0,0-.355.755c0,.018-.009.033-.009.05v2.656a.764.764,0,0,0,.6.739A10.157,10.157,0,0,1,17.906,26.7a6.472,6.472,0,0,0-.476,2.427,6.554,6.554,0,0,0,1.812,4.51c-2.8,1.875-4.008,4.826-3.605,8.794H2.358A.793.793,0,0,1,1.555,41.647ZM24.248,23.985a5.145,5.145,0,1,1-5.263,5.144,5.21,5.21,0,0,1,5.263-5.144Zm16.958-.525V22.4c1.618.3,4.784.546,6.655-1.535a.748.748,0,0,0,.028-.97c-.558-.7-2.043-2.776-2.217-4.033-.236-1.7-1.062-5.859-3.624-7.732a6.236,6.236,0,0,0-7.935,0c-2.562,1.873-3.388,6.031-3.624,7.732-.174,1.257-1.66,3.336-2.217,4.032a.747.747,0,0,0,.028.971c1.872,2.081,5.039,1.833,6.656,1.535v1.079a11.618,11.618,0,0,0-4.675,2.551,6.891,6.891,0,0,0-11.636-.695,11.768,11.768,0,0,0-3.673-1.827V21.654a7.606,7.606,0,0,0,2.242-2.632,4.187,4.187,0,0,0,3.536-3.944,3.725,3.725,0,0,0-2.877-3.943C16.869,8.042,14.374,6,11.525,6a6.733,6.733,0,0,0-6.438,5.136,3.727,3.727,0,0,0-2.862,3.942,4.162,4.162,0,0,0,3.621,3.963,7.472,7.472,0,0,0,2.587,2.828v1.624A11.791,11.791,0,0,0,0,34.741v6.907a2.333,2.333,0,0,0,2.357,2.3H47.441a2.334,2.334,0,0,0,2.358-2.3V34.741A11.779,11.779,0,0,0,41.205,23.46Z" transform="translate(0)"/><path class="b-i-am-sick-icon-2" d="M0,0H50V50H0Z"/></svg>