<svg xmlns="http://www.w3.org/2000/svg" width="48.074" height="47.495" viewBox="0 0 48.074 47.495"><defs><style>.a-i-am-sick-icon-4,.b-i-am-sick-icon-4{fill:#0052a5;}.b-i-am-sick-icon-4{fill-rule:evenodd;}</style></defs><g transform="translate(-2362 -6442.48)"><g transform="translate(1702.536 6082.045)"><path class="a-i-am-sick-icon-4" d="M687.88,361.29a2.905,2.905,0,1,0,.01,4.12A2.909,2.909,0,0,0,687.88,361.29Zm-1.05,3.06a1.418,1.418,0,0,1-2.01-2,1.4,1.4,0,0,1,1-.41,1.367,1.367,0,0,1,1,.41,1.412,1.412,0,0,1,.01,2Z"/></g><path class="a-i-am-sick-icon-4" d="M706.59,384.53a3.151,3.151,0,0,0-1.62-.89l1.22-1.22a3.189,3.189,0,0,0-2.11-5.42,3.4,3.4,0,0,0-.88-3.3,3.343,3.343,0,0,0-3.87-.61,3.261,3.261,0,0,0-.91-1.76,3.169,3.169,0,0,0-4.47,0l-3.85,3.85a3.349,3.349,0,0,0-1.83.06,2.873,2.873,0,0,0,.55-.44,3.6,3.6,0,0,0,1.06-2.55,3.637,3.637,0,0,0-1.06-2.55,3.621,3.621,0,0,0-5.1,0,3.631,3.631,0,0,0-.89,3.62,2.5,2.5,0,0,0-.4.33l-8.08,8.08a4.479,4.479,0,0,0-1.12-2.82,1.783,1.783,0,0,0-.22-.26,2.106,2.106,0,0,0-2.96.02c-1.12,1.06-6.37,6.13-6.38,6.14l-.27.28c-.36.36-.7.74-1.02,1.13a13.442,13.442,0,0,0,2.15,18.87,13.64,13.64,0,0,0,18.09-1.27l.41-.41a4.832,4.832,0,0,0,4.15,2.32,4.922,4.922,0,0,0,4.18-2.32,5.918,5.918,0,0,0,7.96-6.71l7.3-7.68A3.166,3.166,0,0,0,706.59,384.53Zm-1.47-5.52a1.66,1.66,0,0,1,0,2.35l-3.08,3.08-.1.11-4.64,4.64a3.4,3.4,0,0,0-1.23-.24h-.04a3.27,3.27,0,0,0-.94-2.12,1.2,1.2,0,0,0-.12-.11l7.75-7.75A1.694,1.694,0,0,1,705.12,379.01Zm-5.58-4.24a1.86,1.86,0,0,1,2.63,2.63l-.5.5-8.08,8.08a.647.647,0,0,0-.13-.04l1.21-1.21a3.175,3.175,0,0,0-.02-4.51,2.319,2.319,0,0,0-.3-.26Zm-4.53-2.38a1.685,1.685,0,0,1,2.86,1.21,1.649,1.649,0,0,1-.48,1.17,1.059,1.059,0,0,0-.1.12c0,.01-.01.01-.01.02l-4.42,4.41-.31-.03a3.324,3.324,0,0,0-.83-3.19,2.08,2.08,0,0,0-.22-.2Zm-10.23-1.62a2.1,2.1,0,0,1,2.98,0,2.056,2.056,0,0,1,.62,1.48,2.1,2.1,0,0,1-.62,1.49,1.983,1.983,0,0,1-.47.35,2.893,2.893,0,0,0-.36-.44,3.161,3.161,0,0,0-2.25-.93,2.283,2.283,0,0,0-.45.04A2.12,2.12,0,0,1,684.78,370.77Zm-3.23,32a12.15,12.15,0,0,1-16.1,1.14,11.929,11.929,0,0,1-1.89-16.75,12.258,12.258,0,0,1,.9-1.01l.27-.27s5.23-5.06,6.37-6.14a.613.613,0,0,1,.86-.01l.11.12a3.119,3.119,0,0,1-.21,4.35.579.579,0,0,0-.1.12l-3.38,3.38a.737.737,0,0,0,0,1.06.725.725,0,0,0,.53.22.742.742,0,0,0,.53-.22l14.05-14.05a1.718,1.718,0,0,1,2.39.02,1.648,1.648,0,0,1,0,2.34.471.471,0,0,0-.09.12l-8.6,8.6a.75.75,0,0,0,1.06,1.06l9.76-9.76a1.86,1.86,0,0,1,2.64,2.62l-.48.49-9.29,9.28a.755.755,0,0,0,0,1.06.748.748,0,0,0,1.06,0l9.24-9.24c.01-.01.03-.02.04-.03a1.678,1.678,0,0,1,2.38.03,1.633,1.633,0,0,1,.5,1.18,1.7,1.7,0,0,1-.5,1.2l-3.05,3.05-.11.12-5.94,5.93a.755.755,0,0,0,0,1.06.786.786,0,0,0,.53.22.749.749,0,0,0,.53-.22l6.01-6.01a1.77,1.77,0,0,1,2.47.07,1.7,1.7,0,0,1,0,2.38Zm16.53-8.39a3.106,3.106,0,0,1-.46.54.72.72,0,0,0-.17.91,4.425,4.425,0,0,1,.2.45c.05.13.09.26.13.4a3.92,3.92,0,0,1,.17,1.07,4.478,4.478,0,0,1-2.37,4.07,4.415,4.415,0,0,1-4.19-.05.729.729,0,0,0-.61-.06.76.76,0,0,0-.45.41,3.328,3.328,0,0,1-.25.5,3.4,3.4,0,0,1-4.67,1.11,3.349,3.349,0,0,1-.97-.91l11.57-12.34.03-.04h.01a2.288,2.288,0,0,1,1.05.31,2.767,2.767,0,0,1,.45.31,2.58,2.58,0,0,1,.9,1.87A2.619,2.619,0,0,1,698.08,394.38Zm7.46-6.4-5.7,6a3.778,3.778,0,0,0,.11-1.11,4.04,4.04,0,0,0-1.34-2.87l4.47-4.47a1.756,1.756,0,0,1,2.48.09A1.672,1.672,0,0,1,705.54,387.98Z" transform="translate(1702.536 6082.045)"/><g transform="translate(1702.536 6082.045)"><path class="a-i-am-sick-icon-4" d="M679.39,367.49a4.671,4.671,0,0,0-6.61,0,4.684,4.684,0,0,0,0,6.61,4.672,4.672,0,0,0,6.59.02l.02-.02.04-.04a4.672,4.672,0,0,0-.04-6.57Zm-1.06,5.55-.03.03a3.222,3.222,0,1,1,.03-.03Z"/></g><g transform="translate(1702.536 6082.045)"><path class="b-i-am-sick-icon-4" d="M696.05,390.44l-.04.04.03-.04Z"/></g></g></svg>