<svg xmlns="http://www.w3.org/2000/svg" width="51.6" height="46.439" viewBox="0 0 51.6 46.439"><defs><style>.a-i-am-sick-icon-1{fill:#0052a5;}</style></defs><g transform="translate(-2449.522 -6424)"><g transform="translate(1702.536 6082.045)"><path class="a-i-am-sick-icon-1" d="M793.486,388.393h-41.4a.8.8,0,0,1-.8-.8V358.178h-3.5a.8.8,0,0,1-.4-1.49l25.053-14.625a.8.8,0,0,1,.807,0l24.947,14.624a.8.8,0,0,1-.4,1.49h-3.5v29.415A.8.8,0,0,1,793.486,388.393Zm-40.6-1.6h39.8V357.378a.8.8,0,0,1,.8-.8h1.354l-22-12.9-22.1,12.9h1.343a.8.8,0,0,1,.8.8Z"/></g><g transform="translate(1702.536 6082.045)"><path class="a-i-am-sick-icon-1" d="M772.486,368.261a5.389,5.389,0,0,1,0-10.778h0a5.389,5.389,0,0,1,0,10.778Zm0-9.178h0a3.789,3.789,0,1,0,0,7.579h0a3.789,3.789,0,0,0,0-7.579Z"/></g><g transform="translate(1702.536 6082.045)"><path class="a-i-am-sick-icon-1" d="M772.485,383.86a19.386,19.386,0,0,1-6.508-1c-2.772-1.029-3.354-2.519-3.354-3.589a9.86,9.86,0,0,1,9.86-9.862h0a9.862,9.862,0,0,1,9.862,9.86v0C782.347,382.443,777.394,383.86,772.485,383.86Zm0-12.848h0a8.262,8.262,0,0,0-8.26,8.263c0,1.674,3.629,2.986,8.262,2.986s8.262-1.312,8.262-2.986v0A8.272,8.272,0,0,0,772.485,371.012Z"/></g></g></svg>