<svg xmlns="http://www.w3.org/2000/svg" width="48.89" height="48.89" viewBox="0 0 48.89 48.89"><defs><style>.a_important-info-4{fill:none;fill-rule:evenodd;}.b_important-info-4{fill:#0052a5;}</style></defs><g transform="translate(4235 2230)"><path class="a_important-info-4" d="M0,0H48.89V48.89H0Z" transform="translate(-4235 -2230)"/><g transform="translate(-4233.603 -2228.603)"><path class="b_important-info-4" d="M33.451,22.962a5.089,5.089,0,0,1,4.9,4.225h6.493a1.692,1.692,0,0,1,1.691,1.69v8.266A1.68,1.68,0,0,1,45.9,38.46v6.491a1.693,1.693,0,0,1-1.691,1.69H22.789a1.693,1.693,0,0,1-1.691-1.69V38.639a1.687,1.687,0,0,1-.919-1.5V28.877a.729.729,0,0,1,.008-.109,1.672,1.672,0,0,1,1.683-1.58h6.823a4.739,4.739,0,0,1,4.758-4.225Zm10.9,15.871H22.642v6.117a.153.153,0,0,0,.147.147H44.2a.153.153,0,0,0,.147-.147ZM34.83,39.4a.772.772,0,1,1,0,1.543H31.981a.772.772,0,1,1,0-1.543ZM44.848,28.73h-23c-.048,0-.094.027-.127.208v8.2a.8.8,0,0,1,.147-.029H45v-8.23a.153.153,0,0,0-.147-.147ZM17.83,22.87a28.868,28.868,0,0,1,6.138.569.772.772,0,1,1-.335,1.506,29.067,29.067,0,0,0-6.02-.533c-6.645,0-11.327,1.522-13.923,4.528a8.882,8.882,0,0,0-2.144,5.869h14.81a.772.772,0,1,1,0,1.543H.823A.771.771,0,0,1,.06,35.7a10.286,10.286,0,0,1,2.463-7.767C5.453,24.539,10.615,22.84,17.83,22.87Zm15.621,1.635A3.23,3.23,0,0,0,30.267,27h6.472A3.575,3.575,0,0,0,33.451,24.505ZM17.642,0A10.6,10.6,0,1,1,7.128,10.6,10.569,10.569,0,0,1,17.642,0Zm0,1.543A9.057,9.057,0,1,0,26.613,10.6a9.024,9.024,0,0,0-8.971-9.056Z" transform="translate(0)"/></g></g></svg>