<svg xmlns="http://www.w3.org/2000/svg" width="53.054" height="41.892" viewBox="0 0 53.054 41.892"><defs><style>.a_important-info-5{fill:none;stroke:#0052a5;stroke-linecap:round;stroke-width:1.68px;}.a_important-info-5,.b_important-info-5{fill-rule:evenodd;}.b_important-info-5{fill:#0052a5;}</style></defs><g transform="translate(-0.65 -0.716)"><path class="a_important-info-5" d="M9.069,28.031l4.223-3.8h7.19m10.966-12V.556H.49V15.863" transform="translate(1 1)"/><path class="a_important-info-5" d="M34.081,34.727l-4.1-3.964H11.223V6.866H42.181V21.954" transform="translate(10.683 6.693)"/><path class="b_important-info-5" d="M19.265,23.053a1.75,1.75,0,0,1,.443-1.322,1.773,1.773,0,0,1,1.332-.439,1.773,1.773,0,0,1,1.332.439,1.748,1.748,0,0,1,.443,1.322,1.75,1.75,0,0,1-.443,1.322,1.782,1.782,0,0,1-1.332.441,1.782,1.782,0,0,1-1.332-.441A1.75,1.75,0,0,1,19.265,23.053Zm.333-3.525v-.768A3.212,3.212,0,0,1,20.041,17,6.751,6.751,0,0,1,21.6,15.455a5.8,5.8,0,0,0,1.442-1.324,1.842,1.842,0,0,0,.333-1.1,1.151,1.151,0,0,0-.555-.989,2.375,2.375,0,0,0-1.332-.331,8.3,8.3,0,0,0-3.549.989l-1.111-2.311a9.966,9.966,0,0,1,4.993-1.322,5.544,5.544,0,0,1,3.441.991,3.245,3.245,0,0,1,1.219,2.754,3.784,3.784,0,0,1-.554,1.982,6.558,6.558,0,0,1-2,1.872,4.093,4.093,0,0,0-1.221,1.1c-.223.221-.223.552-.223.993v.658H19.6v.11Z" transform="translate(15.735 8.678)"/><path class="a_important-info-5" d="M3.873,3.74h18.2M3.873,9.686h9.433M3.873,15.634h9.433" transform="translate(4.052 3.873)"/></g></svg>