<?xml version="1.0" encoding="utf-8"?>
<svg xmlns="http://www.w3.org/2000/svg" width="46.78" height="49.276" viewBox="0 0 46.78 49.276"><defs><style>.a_important-info-2{fill:none;stroke:#0052a5;stroke-linecap:round;stroke-linejoin:round;stroke-miterlimit:10;stroke-width:1.48px;}.b_important-info-2{fill:#0052a5;}</style></defs><g transform="matrix(0.996, -0.087, 0.087, 0.996, -3.298, 1.162)"><path class="a_important-info-2" d="M3.8,27.593V3.6H45.28V36.947H17.423L7.663,47.52" transform="translate(0 0)"/><g transform="translate(21.897 11.937)"><path class="b_important-info-2" d="M12.7,23.56a1.583,1.583,0,0,1,.61-1.423,3.03,3.03,0,0,1,1.627-.61,2.309,2.309,0,0,1,1.627.61,1.846,1.846,0,0,1,.61,1.423,1.583,1.583,0,0,1-.61,1.423,3.03,3.03,0,0,1-1.627.61,2.309,2.309,0,0,1-1.627-.61A1.846,1.846,0,0,1,12.7,23.56Zm3.66-4.27H13.513L12.9,7.7H16.97Z" transform="translate(-12.7 -7.7)"/></g></g></svg>