<svg xmlns="http://www.w3.org/2000/svg" width="42.672" height="47.471" viewBox="0 0 42.672 47.471"><defs><style>.a_important-info-6{fill:none;stroke:#d5233f;stroke-linecap:round;stroke-linejoin:round;stroke-miterlimit:10;stroke-width:1.48px;}</style></defs><g transform="translate(3918.74 1845.74)"><path class="a_important-info-6" d="M11.6,29.5H36.8l-15-26L12,20.3" transform="translate(-3913.603 -1848.5)"/><path class="a_important-info-6" d="M16.7,7.6v8.6m0,4.2V21" transform="translate(-3908.505 -1844.402)"/><path class="a_important-info-6" d="M35.994,44.493C18,44.493,3.6,29.5,3.6,11.1A2.647,2.647,0,0,1,6.2,8.5h6.4a2.647,2.647,0,0,1,2.6,2.6,18.242,18.242,0,0,0,1,6.6,2.884,2.884,0,0,1-.6,2.6l-3.8,3.8a27.722,27.722,0,0,0,11.4,11.6L27,31.9a2.239,2.239,0,0,1,2.6-.6,17.837,17.837,0,0,0,6.4,1,2.647,2.647,0,0,1,2.6,2.6v6.6a6.989,6.989,0,0,1-.6,2.4A2.627,2.627,0,0,1,35.994,44.493Z" transform="translate(-3921.6 -1843.502)"/></g></svg>