<svg xmlns="http://www.w3.org/2000/svg" width="33.005" height="49.766" viewBox="0 0 33.005 49.766"><defs><style>.a_important-info-1{fill:none;stroke:#0052a5;stroke-linecap:round;stroke-linejoin:round;stroke-miterlimit:10;stroke-width:1.48px;}.b_important-info-1{fill:#0052a5;}</style></defs><g transform="translate(-79.26 -131.26)"><line class="a_important-info-1" x2="30.328" transform="translate(80.598 139.183)"/><line class="a_important-info-1" x2="10.774" transform="translate(90.375 135.592)"/><path class="a_important-info-1" d="M34.534,51.186H10.591A3.788,3.788,0,0,1,6.8,47.395V6.691A3.788,3.788,0,0,1,10.591,2.9H34.534a3.788,3.788,0,0,1,3.791,3.791v40.7A3.925,3.925,0,0,1,34.534,51.186Z" transform="translate(73.2 129.1)"/><g transform="translate(89.178 146.765)"><path class="b_important-info-1" d="M15.191,24.466v-1a4.255,4.255,0,0,1,.6-2.394,11.224,11.224,0,0,1,2.195-2.195,9.328,9.328,0,0,0,2-1.8,1.9,1.9,0,0,0,.4-1.4,1.811,1.811,0,0,0-.6-1.4c-.4-.4-1-.4-2-.4A9.868,9.868,0,0,0,13,15.288L11.4,12.1a13.809,13.809,0,0,1,6.784-1.8c2,0,3.591.4,4.589,1.4a4.634,4.634,0,0,1,1.8,3.791,4.581,4.581,0,0,1-.8,2.793,8.935,8.935,0,0,1-2.793,2.594,7.538,7.538,0,0,0-1.8,1.6,1.684,1.684,0,0,0-.4,1.4v.8H15.191v-.2Zm-.4,4.988a2.439,2.439,0,0,1,.6-1.8,2.439,2.439,0,0,1,1.8-.6,2.439,2.439,0,0,1,1.8.6,2.439,2.439,0,0,1,.6,1.8,2.439,2.439,0,0,1-.6,1.8,2.439,2.439,0,0,1-1.8.6,2.439,2.439,0,0,1-1.8-.6A2.439,2.439,0,0,1,14.792,29.455Z" transform="translate(-11.4 -10.3)"/></g><line class="a" x2="29.929" transform="translate(80.798 174.1)"/></g></svg>