<svg xmlns="http://www.w3.org/2000/svg" width="37.846" height="37.846" viewBox="0 0 37.846 37.846"><defs><style>.a{fill:#0052a5;}.b{isolation:isolate;}</style></defs><g transform="translate(-269.895 -311.247)"><path class="a" d="M285.224,331.948a.554.554,0,0,0-.554-.554H272.227A1.224,1.224,0,0,1,271,330.17V313.579a1.224,1.224,0,0,1,1.223-1.223h16.591a1.225,1.225,0,0,1,1.223,1.223v12.443a.554.554,0,0,0,1.109,0V313.579a2.335,2.335,0,0,0-2.332-2.332H272.227a2.334,2.334,0,0,0-2.332,2.332V330.17a2.335,2.335,0,0,0,2.332,2.332H284.67A.554.554,0,0,0,285.224,331.948Z"/><path class="a" d="M494.347,538.031v4.74a.554.554,0,1,0,1.109,0v-4.74a1.224,1.224,0,0,1,1.223-1.223H513.27a1.225,1.225,0,0,1,1.223,1.223v16.591a1.225,1.225,0,0,1-1.223,1.223H496.679a1.224,1.224,0,0,1-1.223-1.223v-9.481a.554.554,0,1,0-1.109,0v9.481a2.335,2.335,0,0,0,2.332,2.332H513.27a2.335,2.335,0,0,0,2.332-2.332V538.031a2.335,2.335,0,0,0-2.332-2.332H496.679A2.335,2.335,0,0,0,494.347,538.031Z" transform="translate(-207.861 -207.861)"/><path class="a" d="M326.659,663.678l-2.37-1.778a.554.554,0,1,0-.665.887l1.04.78h-1.892a3.6,3.6,0,0,1-3.593-3.593v-3.555a.554.554,0,0,0-1.109,0v3.555a4.707,4.707,0,0,0,4.7,4.7h1.892l-1.04.78a.554.554,0,0,0,.665.887l2.37-1.778a.554.554,0,0,0,0-.887Z" transform="translate(-44.613 -319.144)"/><path class="a" d="M614.729,338.151l2.37,1.778a.554.554,0,1,0,.665-.887h0l-1.039-.78h1.892a3.6,3.6,0,0,1,3.593,3.593v3.555a.554.554,0,0,0,1.109,0v-3.555a4.707,4.707,0,0,0-4.7-4.7h-1.892l1.04-.78a.554.554,0,0,0-.665-.887h0l-2.37,1.778a.554.554,0,0,0,0,.887Z" transform="translate(-319.139 -22.345)"/><g class="b" transform="translate(275.829 315.297)"><g class="b"><path class="a" d="M359.271,378.545h-1.1V375.96h-6.894v2.585h-1.1v-3.63h.767a18.772,18.772,0,0,0,1.788-4.275,19.014,19.014,0,0,0,.824-4.6h4.458v8.875h1.255Zm-2.409-3.63v-7.837H354.6a18.783,18.783,0,0,1-.821,3.946,18.166,18.166,0,0,1-1.629,3.891Z" transform="translate(-350.179 -366.04)"/></g></g><g class="b" transform="translate(293.434 333.629)"><g class="b"><path class="a" d="M596.264,618.905a5.008,5.008,0,0,1-1.333,3.756,5.275,5.275,0,0,1-3.837,1.3h-2.748v-9.92h3.04a4.453,4.453,0,0,1,4.879,4.865Zm-1.221.041a3.994,3.994,0,0,0-.974-2.924,3.9,3.9,0,0,0-2.894-.984H589.5v7.925h1.4a4.27,4.27,0,0,0,3.1-1.014A4.016,4.016,0,0,0,595.042,618.946Z" transform="translate(-588.345 -614.04)"/></g></g></g></svg>