<svg xmlns="http://www.w3.org/2000/svg" width="127.951" height="171.891" viewBox="0 0 127.951 171.891">
    <defs>
        <style>.a_protegosafe_logo_white{fill:#fff;}.b_protegosafe_logo_white{fill:#e7294a;}</style>
    </defs>
    <g transform="translate(-65.176 -64.282)">
        <g transform="translate(78.032 148.108)">
            <path class="a_protegosafe_logo_white"
                  d="M95.98,154.8a10.722,10.722,0,0,0-2.6-2.046,22.149,22.149,0,0,0-3.789-1.695c-1.113-.4-2.073-.786-2.847-1.141a9.685,9.685,0,0,1-1.8-1.036,3.161,3.161,0,0,1-.926-1.022,2.508,2.508,0,0,1-.27-1.163,2.24,2.24,0,0,1,.286-1.084,3.207,3.207,0,0,1,.77-.923,3.834,3.834,0,0,1,1.159-.639,4.383,4.383,0,0,1,1.478-.243,8.033,8.033,0,0,1,3.094.549A7.68,7.68,0,0,1,92.9,145.94l.15.145,4.239-4.277-.16-.146a12.541,12.541,0,0,0-4.152-2.6,16.269,16.269,0,0,0-5.729-.888,11.245,11.245,0,0,0-3.807.631,9.728,9.728,0,0,0-3.094,1.771,8.339,8.339,0,0,0-2.1,2.751,8.115,8.115,0,0,0-.768,3.517,8,8,0,0,0,.7,3.446,8.461,8.461,0,0,0,1.831,2.541,11.036,11.036,0,0,0,2.64,1.843,28.717,28.717,0,0,0,3.106,1.34c1.212.437,2.214.834,2.974,1.176a9.184,9.184,0,0,1,1.782,1.016,2.805,2.805,0,0,1,.85.981,2.694,2.694,0,0,1,.236,1.151,2.191,2.191,0,0,1-.286,1.1,2.9,2.9,0,0,1-.782.886,4.024,4.024,0,0,1-1.179.6,4.551,4.551,0,0,1-1.447.226,10.617,10.617,0,0,1-3.573-.586,11.431,11.431,0,0,1-3.366-2.026l-.149-.124-4.312,4.349.179.146a24.54,24.54,0,0,0,2.558,1.822,13.874,13.874,0,0,0,2.593,1.241,15,15,0,0,0,2.883.7,24.306,24.306,0,0,0,3.444.221,10.914,10.914,0,0,0,3.941-.689,10.127,10.127,0,0,0,3.091-1.845,8.443,8.443,0,0,0,2.035-2.673,7.332,7.332,0,0,0,.733-3.208,9.657,9.657,0,0,0-.484-3.151A7.4,7.4,0,0,0,95.98,154.8Z"
                  transform="translate(-76.509 -138.177)"/>
            <path class="a_protegosafe_logo_white" d="M96.984,144.176h8.058v24.107h6.146V144.176h8.06v-5.454H96.984Z"
                  transform="translate(-73.757 -138.104)"/>
            <path class="a_protegosafe_logo_white"
                  d="M143.806,142.664a15.949,15.949,0,0,0-22.111-.02,15.327,15.327,0,0,0-3.382,4.88,14.878,14.878,0,0,0-1.238,6.032,14.728,14.728,0,0,0,1.238,6.009,15.39,15.39,0,0,0,3.382,4.863,16.12,16.12,0,0,0,5,3.27,15.925,15.925,0,0,0,12.13,0,16.232,16.232,0,0,0,4.98-3.27,15.308,15.308,0,0,0,3.379-4.881,15.2,15.2,0,0,0,0-12A15.629,15.629,0,0,0,143.806,142.664ZM132.77,163.117a9.268,9.268,0,0,1-3.754-.766,9.941,9.941,0,0,1-3.061-2.071,9.689,9.689,0,0,1-2.058-3.053,9.419,9.419,0,0,1,0-7.366,9.726,9.726,0,0,1,2.058-3.035,9.97,9.97,0,0,1,3.061-2.071,9.279,9.279,0,0,1,3.754-.766,9.148,9.148,0,0,1,3.712.767,9.939,9.939,0,0,1,3.062,2.07,9.722,9.722,0,0,1,2.057,3.035,9.406,9.406,0,0,1,0,7.366,9.686,9.686,0,0,1-2.057,3.053,9.961,9.961,0,0,1-3.062,2.071A9.163,9.163,0,0,1,132.77,163.117Z"
                  transform="translate(-71.057 -138.173)"/>
            <path class="a_protegosafe_logo_white"
                  d="M168.307,144.758a10.029,10.029,0,0,0-2.183-3.167,10.222,10.222,0,0,0-3.247-2.105,10.448,10.448,0,0,0-3.951-.762h-10.7v29.56H154.3v-9.519h4.618a10.369,10.369,0,0,0,3.955-.765,9.945,9.945,0,0,0,3.248-2.124,10.172,10.172,0,0,0,2.186-3.2,9.882,9.882,0,0,0,.8-3.966A9.765,9.765,0,0,0,168.307,144.758ZM154.3,143.407h3.547a4.972,4.972,0,0,1,2.032.422,5.493,5.493,0,0,1,1.652,1.125,5.228,5.228,0,0,1,1.1,1.646,5.168,5.168,0,0,1,.4,2.034,5.3,5.3,0,0,1-.4,2.052,5.557,5.557,0,0,1-1.108,1.7,5.446,5.446,0,0,1-1.651,1.179,4.782,4.782,0,0,1-2.028.436H154.3Z"
                  transform="translate(-66.87 -138.104)"/>
        </g>
        <g transform="translate(65.176 185.828)">
            <path class="a_protegosafe_logo_white"
                  d="M89.055,191.965a10.673,10.673,0,0,1-3.4,3.168,9.085,9.085,0,0,1-4.678,1.195,9.431,9.431,0,0,1-3.767-.767,10.159,10.159,0,0,1-3.095-2.074,9.865,9.865,0,0,1-2.091-3.04,8.952,8.952,0,0,1-.766-3.655,9.061,9.061,0,0,1,.766-3.7,9.96,9.96,0,0,1,2.091-3.042,10.127,10.127,0,0,1,3.095-2.069,9.635,9.635,0,0,1,8.359.39,10.152,10.152,0,0,1,3.416,3.059l.146.209,4.082-4.2.133-.135-.119-.144a16.275,16.275,0,0,0-5.272-4.146,15.4,15.4,0,0,0-6.978-1.59,16.189,16.189,0,0,0-6.176,1.184,15.4,15.4,0,0,0-8.391,8.161,15.3,15.3,0,0,0,0,12.034,15.381,15.381,0,0,0,3.369,4.869,16.031,16.031,0,0,0,11.2,4.475,15.392,15.392,0,0,0,6.978-1.592,16.552,16.552,0,0,0,5.382-4.289l.118-.146L89.2,191.755Z"
                  transform="translate(-65.176 -171.428)"/>
            <path class="a_protegosafe_logo_white"
                  d="M117.865,175.886a15.971,15.971,0,0,0-22.136-.017,15.368,15.368,0,0,0-3.384,4.884,14.916,14.916,0,0,0-1.239,6.04,14.747,14.747,0,0,0,1.239,6.015,15.4,15.4,0,0,0,3.384,4.869,16.08,16.08,0,0,0,5.006,3.274,15.939,15.939,0,0,0,12.141,0,16.209,16.209,0,0,0,4.988-3.274,15.313,15.313,0,0,0,3.381-4.886,15.142,15.142,0,0,0,0-12.018A15.62,15.62,0,0,0,117.865,175.886Zm-11.05,20.477a9.287,9.287,0,0,1-3.757-.763A10.028,10.028,0,0,1,100,193.525a9.706,9.706,0,0,1-2.059-3.057,9.431,9.431,0,0,1,0-7.376A9.823,9.823,0,0,1,100,180.054a9.995,9.995,0,0,1,3.062-2.071,9.286,9.286,0,0,1,3.757-.768,9.155,9.155,0,0,1,3.72.77,9.927,9.927,0,0,1,3.063,2.069,9.823,9.823,0,0,1,2.059,3.038,9.4,9.4,0,0,1,0,7.376,9.706,9.706,0,0,1-2.059,3.057,9.993,9.993,0,0,1-3.063,2.075A9.191,9.191,0,0,1,106.815,196.363Z"
                  transform="translate(-61.691 -171.428)"/>
            <path class="a_protegosafe_logo_white"
                  d="M131.958,192.031l-7.446-20.12h-6.733l11.432,29.494.053.135h5.47l11.115-29.346.109-.284H139.3Z"
                  transform="translate(-58.106 -171.363)"/>
            <rect class="a_protegosafe_logo_white" width="6.077" height="29.594" transform="translate(90.44 0.584)"/>
            <path class="a_protegosafe_logo_white"
                  d="M180.06,180.991a14.509,14.509,0,0,0-2.889-4.7,13.923,13.923,0,0,0-4.431-3.19,13.368,13.368,0,0,0-5.62-1.188h-12.4V201.54h12.4a13.475,13.475,0,0,0,10.051-4.358,14.8,14.8,0,0,0,2.889-4.7,16.494,16.494,0,0,0,0-11.487Zm-19.267-4.205h4.721a9.923,9.923,0,0,1,3.984.769,8.553,8.553,0,0,1,2.979,2.1,9.385,9.385,0,0,1,1.857,3.123,10.737,10.737,0,0,1,.609,3.8,11.679,11.679,0,0,1-.7,3.891,9.212,9.212,0,0,1-1.872,3.071,8.564,8.564,0,0,1-2.941,2.029,10.024,10.024,0,0,1-3.916.731h-4.721Z"
                  transform="translate(-53.142 -171.363)"/>
        </g>
        <g transform="translate(91.294 64.282)">
            <path class="a_protegosafe_logo_white"
                  d="M154.663,88.276H138.59v-17.5a6.493,6.493,0,0,0-6.494-6.5H114.56a6.494,6.494,0,0,0-6.494,6.5V85.951l7.5-5.9V73.39a1.29,1.29,0,0,1,1.29-1.293H129.8a1.289,1.289,0,0,1,1.288,1.293V95.656h.015v.117h20.949a1.293,1.293,0,0,1,1.29,1.289v12.951a1.291,1.291,0,0,1-1.29,1.29h-24v-2.239l-9.242,6.062,9.242,6.06V118.8h26.607a6.5,6.5,0,0,0,6.5-6.494V94.769A6.5,6.5,0,0,0,154.663,88.276Z"
                  transform="translate(-85.53 -64.282)"/>
            <path class="b_protegosafe_logo_white"
                  d="M133.789,130.5a1.285,1.285,0,0,1-1.288,1.289H119.554a1.289,1.289,0,0,1-1.289-1.289V108.233h-.012v-.115H97.3a1.291,1.291,0,0,1-1.29-1.291V93.882a1.292,1.292,0,0,1,1.29-1.294h24v2.24l9.242-6.06L121.3,82.7v2.389H94.694A6.491,6.491,0,0,0,88.2,91.584v17.539a6.494,6.494,0,0,0,6.494,6.492h16.071v17.5a6.492,6.492,0,0,0,6.491,6.493H134.8a6.5,6.5,0,0,0,6.5-6.493V117.942l-7.5,5.9Z"
                  transform="translate(-88.2 -61.806)"/>
        </g>
        <g transform="translate(76.435 223.663)">
            <path class="b_protegosafe_logo_white"
                  d="M80.173,205.1H75.1V216.92h2.45V212.67h2.464a4.515,4.515,0,0,0,2.963-.864,3.686,3.686,0,0,0,1.036-2.961,3.577,3.577,0,0,0-1.043-2.831A4.1,4.1,0,0,0,80.173,205.1Zm.919,5.106a1.882,1.882,0,0,1-1.315.425H77.551v-3.478h2.226a1.983,1.983,0,0,1,1.315.393,1.627,1.627,0,0,1,.469,1.312A1.727,1.727,0,0,1,81.092,210.207Z"
                  transform="translate(-75.101 -204.737)"/>
            <path class="b_protegosafe_logo_white"
                  d="M89.288,207.629a2.486,2.486,0,0,0-1.665.541,4.816,4.816,0,0,0-.923,1.194v-1.523H84.521v8.739h2.3V212.4a3.523,3.523,0,0,1,.264-1.559,1.9,1.9,0,0,1,1.851-.9c.069,0,.161,0,.275.009s.24.012.381.029v-2.341a1.765,1.765,0,0,1-.194-.012A.786.786,0,0,0,89.288,207.629Z"
                  transform="translate(-73.835 -204.397)"/>
            <path class="b_protegosafe_logo_white"
                  d="M94.169,207.569a4.042,4.042,0,0,0-3.361,1.385,5.419,5.419,0,0,0,0,6.565,4.819,4.819,0,0,0,6.72,0,5.428,5.428,0,0,0,0-6.565A4.036,4.036,0,0,0,94.169,207.569Zm1.531,6.687a2.019,2.019,0,0,1-3.084,0,4.057,4.057,0,0,1,0-4.049,2.038,2.038,0,0,1,3.084,0,4.11,4.11,0,0,1,0,4.049Z"
                  transform="translate(-73.139 -204.405)"/>
            <path class="b_protegosafe_logo_white"
                  d="M101.706,205.737H99.444v2.438H98.228V209.8h1.216v5.382a1.662,1.662,0,0,0,.383,1.209,2.912,2.912,0,0,0,2.213.563l1.083-.04v-1.708a1.882,1.882,0,0,1-.228.011c-.077,0-.151,0-.219,0a1.514,1.514,0,0,1-.835-.133,1.05,1.05,0,0,1-.136-.67V209.8h1.418v-1.627h-1.418Z"
                  transform="translate(-71.993 -204.651)"/>
            <path class="b_protegosafe_logo_white"
                  d="M111.129,209.309a3.552,3.552,0,0,0-1.516-1.288,4.929,4.929,0,0,0-2.054-.41,4.225,4.225,0,0,0-3.126,1.21,4.732,4.732,0,0,0-1.2,3.48,4.223,4.223,0,0,0,1.334,3.5,4.733,4.733,0,0,0,3.078,1.075,4.257,4.257,0,0,0,3.286-1.272,2.877,2.877,0,0,0,.85-1.581h-2.335a1.9,1.9,0,0,1-.472.6,1.923,1.923,0,0,1-1.271.4,2.324,2.324,0,0,1-1.258-.33,2.1,2.1,0,0,1-.915-1.845H111.9a11.5,11.5,0,0,0-.076-1.736A4.437,4.437,0,0,0,111.129,209.309Zm-5.542,2.036a2.393,2.393,0,0,1,.609-1.353,1.819,1.819,0,0,1,1.366-.5,1.994,1.994,0,0,1,1.356.472,1.9,1.9,0,0,1,.607,1.377Z"
                  transform="translate(-71.32 -204.399)"/>
            <path class="b_protegosafe_logo_white"
                  d="M117.615,212.584h2.732a3.082,3.082,0,0,1-.98,1.873,2.923,2.923,0,0,1-2.033.712,3.278,3.278,0,0,1-2.262-.9,4.03,4.03,0,0,1-1-3.087,4.9,4.9,0,0,1,.921-3.235,2.948,2.948,0,0,1,2.347-1.077,3.352,3.352,0,0,1,1.352.263,2.323,2.323,0,0,1,1.373,1.695H122.5a4.259,4.259,0,0,0-1.57-2.848,5.456,5.456,0,0,0-3.62-1.147,5.37,5.37,0,0,0-4.176,1.736,6.548,6.548,0,0,0-1.585,4.6,6.209,6.209,0,0,0,1.567,4.468,5,5,0,0,0,3.849,1.629,4.554,4.554,0,0,0,2.4-.6,5.64,5.64,0,0,0,1.289-1.182l.245,1.476h1.636v-6.342h-4.921Z"
                  transform="translate(-70.203 -204.773)"/>
            <path class="b_protegosafe_logo_white"
                  d="M128.593,204.78a5.163,5.163,0,0,0-3.875,1.381,6.279,6.279,0,0,0-1.793,4.877,6.408,6.408,0,0,0,1.793,4.877,6.138,6.138,0,0,0,7.746,0,6.385,6.385,0,0,0,1.791-4.877,6.258,6.258,0,0,0-1.791-4.877A5.14,5.14,0,0,0,128.593,204.78Zm2.333,9.335a3.064,3.064,0,0,1-4.674,0,5.85,5.85,0,0,1,0-6.158,3.06,3.06,0,0,1,4.674,0,5.924,5.924,0,0,1,0,6.155Z"
                  transform="translate(-68.674 -204.78)"/>
            <path class="b_protegosafe_logo_white"
                  d="M144.783,210.233l-2.073-.488a7,7,0,0,1-1.571-.49,1.014,1.014,0,0,1-.576-.945,1.208,1.208,0,0,1,.584-1.074,2.792,2.792,0,0,1,1.563-.387,3.247,3.247,0,0,1,1.468.295,1.7,1.7,0,0,1,.955,1.519h2.372a3.519,3.519,0,0,0-1.4-2.877,5.256,5.256,0,0,0-3.224-.99,4.972,4.972,0,0,0-3.434,1.053,3.393,3.393,0,0,0-1.17,2.639,2.885,2.885,0,0,0,1.2,2.557,8.018,8.018,0,0,0,2.59.905l1.281.282a5.448,5.448,0,0,1,1.64.554,1,1,0,0,1,.517.9,1.375,1.375,0,0,1-1.054,1.371,4.583,4.583,0,0,1-1.451.2,2.61,2.61,0,0,1-2.1-.733,2.389,2.389,0,0,1-.454-1.208h-2.354a3.5,3.5,0,0,0,1.337,2.9,5.8,5.8,0,0,0,3.666,1.053,5.272,5.272,0,0,0,3.54-1.073,3.375,3.375,0,0,0,1.254-2.689,2.894,2.894,0,0,0-1.057-2.415A5.291,5.291,0,0,0,144.783,210.233Z"
                  transform="translate(-66.636 -204.778)"/>
            <path class="b_protegosafe_logo_white"
                  d="M155.445,215.978a1.274,1.274,0,0,1-.133-.609c-.011-.395-.018-.734-.018-1.007v-4.013a2.177,2.177,0,0,0-1.122-2.146,5.556,5.556,0,0,0-2.558-.573,3.768,3.768,0,0,0-3.126,1.159,3.347,3.347,0,0,0-.643,1.883h2.205a1.65,1.65,0,0,1,.326-.8,1.459,1.459,0,0,1,1.159-.4,2.334,2.334,0,0,1,1.112.21.758.758,0,0,1,.379.737.69.69,0,0,1-.493.651,3.692,3.692,0,0,1-.911.2l-.784.1a5.6,5.6,0,0,0-2.021.559,2.5,2.5,0,0,0-1.25,2.337,2.408,2.408,0,0,0,.777,1.916,2.892,2.892,0,0,0,1.973.68,3.334,3.334,0,0,0,1.677-.422,4.634,4.634,0,0,0,1.1-.879c.019.2.036.375.066.53a2.352,2.352,0,0,0,.145.5h2.483v-.336A.834.834,0,0,1,155.445,215.978Zm-2.429-2.8a1.821,1.821,0,0,1-.652,1.578,2.41,2.41,0,0,1-1.381.438,1.261,1.261,0,0,1-.8-.265,1.024,1.024,0,0,1-.33-.849,1.044,1.044,0,0,1,.539-.969,3.52,3.52,0,0,1,1.052-.313l.52-.1a3.956,3.956,0,0,0,.615-.154,3.1,3.1,0,0,0,.442-.222Z"
                  transform="translate(-65.362 -204.397)"/>
            <path class="b_protegosafe_logo_white"
                  d="M158.9,207.535a.657.657,0,0,1,.8-.669c.3.01.516.02.642.04v-1.864l-.476-.033c-.119-.009-.252-.015-.394-.015q-1.9,0-2.4.787a2.961,2.961,0,0,0-.471,1.933v.56h-1.254v1.613h1.29v7.047H158.9v-7.047h1.5v-1.613h-1.5Z"
                  transform="translate(-64.316 -204.751)"/>
            <path class="b_protegosafe_logo_white"
                  d="M168.943,211.117a4.285,4.285,0,0,0-.7-1.808,3.555,3.555,0,0,0-1.509-1.288,4.962,4.962,0,0,0-2.059-.41,4.215,4.215,0,0,0-3.124,1.21,4.733,4.733,0,0,0-1.2,3.48,4.24,4.24,0,0,0,1.333,3.5,4.749,4.749,0,0,0,3.079,1.075,4.253,4.253,0,0,0,3.289-1.272,2.819,2.819,0,0,0,.846-1.581h-2.331a1.838,1.838,0,0,1-.472.6,1.921,1.921,0,0,1-1.266.4,2.329,2.329,0,0,1-1.263-.33,2.1,2.1,0,0,1-.913-1.845h6.369A11.148,11.148,0,0,0,168.943,211.117Zm-6.232.228a2.362,2.362,0,0,1,.608-1.353,1.808,1.808,0,0,1,1.361-.5,2.011,2.011,0,0,1,1.361.472,1.9,1.9,0,0,1,.6,1.377Z"
                  transform="translate(-63.644 -204.399)"/>
        </g>
    </g>
</svg>