<?xml version="1.0" encoding="utf-8"?>
<!-- Generator: Adobe Illustrator 24.0.1, SVG Export Plug-In . SVG Version: 6.00 Build 0)  -->

<svg xmlns="http://www.w3.org/2000/svg" width="25" height="25" x="0px" y="0px"
     viewBox="0 0 25 25" style="enable-background:new 0 0 25 25;" xml:space="preserve">
    <defs>
        <style>.a_safeSafe-dolne-menu-important-info{fill:currentColor;stroke-width:0.3;stroke-linecap:round;stroke-linejoin:round;stroke-miterlimit:10;}</style>
    </defs>
    <g transform="translate(-93.951 -44.466)">
        <path class="a_safeSafe-dolne-menu-important-info" d="M116.951,60.032a7.45,7.45,0,0,0-5.445-7.164,8.782,8.782,0,1,0-16.337,4.845L93.983,62l4.286-1.185a8.762,8.762,0,0,0,4.083,1.209A7.438,7.438,0,0,0,113.3,66.433l3.619,1-1-3.619A7.412,7.412,0,0,0,116.951,60.032Zm-18.469-.676-2.566.71.71-2.566-.162-.253a7.43,7.43,0,1,1,2.271,2.271Zm16.5,6.145-1.9-.527-.255.166a6.088,6.088,0,0,1-9.081-3.168,8.8,8.8,0,0,0,7.711-7.711,6.089,6.089,0,0,1,3.167,9.082l-.165.254Z"/>
        <path class="a_safeSafe-dolne-menu-important-info" d="M102.059,56.64h1.348v1.348h-1.348Z"/>
        <path class="a_safeSafe-dolne-menu-important-info" d="M104.081,51.205a1.332,1.332,0,0,1-.439.994l-1.583,1.449v1.645h1.348V54.242l1.145-1.048a2.7,2.7,0,1,0-4.514-1.989h1.347a1.348,1.348,0,1,1,2.7,0Z"/>
    </g>
</svg>
