<?xml version="1.0" encoding="utf-8"?>
<!-- Generator: Adobe Illustrator 24.2.3, SVG Export Plug-In . SVG Version: 6.00 Build 0)  -->
<svg version="1.1" id="Warstwa_1" xmlns="http://www.w3.org/2000/svg" xmlns:xlink="http://www.w3.org/1999/xlink" x="0px" y="0px"
	 viewBox="0 0 300 300" style="enable-background:new 0 0 300 300;" xml:space="preserve">
<style type="text/css">
	.st0_stopcovid_protegosafe_logo_sygnet{fill:#FFFFFF;}
	.st1_stopcovid_protegosafe_logo_sygnet{fill:#EE435D;}
</style>
<g>
	<path class="st0_stopcovid_protegosafe_logo_sygnet" d="M259.6673,96.9548h-55.5686V36.4638C204.0987,24.0445,194.0542,14,181.6385,14h-60.6217
		c-12.4117,0-22.4602,10.0445-22.4602,22.4638v52.4522l25.9339-20.3889V45.4864c0-2.4746,1.9946-4.4653,4.4578-4.4653h44.7666
		c2.4632,0,4.446,1.9907,4.446,4.4653v76.9911h0.0653v0.3998h72.4259c2.4518,0,4.4578,2.0056,4.4578,4.4495v44.7823
		c0,2.4668-2.006,4.4574-4.4578,4.4574h-82.9776v-7.7391l-31.9554,20.9654l31.9554,20.9504v-8.2467h91.9928
		c12.3885,0,22.4524-10.0445,22.4524-22.4484v-60.6371C282.1197,106.9919,272.0558,96.9548,259.6673,96.9548z"/>
	<path class="st1_stopcovid_protegosafe_logo_sygnet" d="M178.2648,251.5211c0,2.4593-1.9792,4.4574-4.45,4.4574h-44.7705c-2.4632,0-4.4539-1.9981-4.4539-4.4574
		v-77.0065h-0.046v-0.3994H52.1221c-2.4668,0-4.4649-1.9985-4.4649-4.4653v-44.7516c0-2.4746,1.9981-4.4728,4.4649-4.4728h82.9706
		v7.747l31.9476-20.9425l-31.9476-20.9886v8.2616H43.0959c-12.4039,0-22.4563,10.0371-22.4563,22.4488v60.6524
		c0,12.3885,10.0524,22.4331,22.4563,22.4331h55.5568v60.5064c0,12.4039,10.0524,22.4563,22.4488,22.4563h60.6445
		c12.4003,0,22.4681-10.0524,22.4681-22.4563v-52.4596l-25.9492,20.4043V251.5211z"/>
</g>
</svg>
